<svg width="82" height="82" viewBox="0 0 82 82" fill="none" xmlns="http://www.w3.org/2000/svg">
<rect width="82" height="82" rx="8" fill="#DAEDF5"/>
<path d="M53.4944 23.3919C51.2383 21.0983 47.5911 20.1958 44.4328 21.1358C42.8536 21.6247 41.3873 22.6022 40.1839 23.9183C40.0336 24.1063 40.0337 24.4071 40.2214 24.5574C40.4095 24.7077 40.7103 24.7077 40.8606 24.5199C41.9509 23.3166 43.267 22.4144 44.6959 22.0007C47.5159 21.136 50.8623 21.9632 52.8551 23.9935C54.5848 25.7607 55.4495 28.731 55.2239 32.0775C54.9606 35.8 53.4567 39.2591 51.3887 40.8759C50.9751 41.2143 50.5239 41.4776 50.0351 41.7406C48.9448 42.3798 47.7039 43.0568 46.7262 44.7109C46.1998 45.5756 45.9743 46.3276 45.7862 46.967C45.5606 47.7568 45.4101 48.3206 44.7709 48.847C43.6429 49.8623 41.6126 50.3134 40.259 49.3359C38.9054 48.3584 38.9429 46.1398 38.9429 44.8993C38.9429 43.9593 39.0181 43.0193 39.1684 42.0793C39.8829 42.4929 40.7101 42.7184 41.5373 42.7184C44.282 42.7184 46.5381 40.3496 46.5381 37.492C46.5381 35.0482 44.9589 33.0176 42.7781 32.4159C44.1692 30.2351 45.7862 28.7312 47.2148 28.3551C47.4403 28.2798 47.5909 28.0543 47.5531 27.7912C47.4778 27.5656 47.2523 27.4151 46.9892 27.4529C42.6653 28.5809 38.0404 37.5673 38.0404 44.9369C38.0404 46.2905 38.0404 48.8471 39.7323 50.088C40.409 50.5769 41.1987 50.8025 42.0259 50.8025C43.2667 50.8025 44.5076 50.3136 45.3723 49.5241C46.1995 48.8097 46.4251 48.0203 46.6507 47.2305C46.8387 46.5914 47.0268 45.9522 47.4779 45.2003C48.3426 43.7339 49.3579 43.17 50.4481 42.5305C50.937 42.2672 51.4634 41.9666 51.9145 41.5905C54.1707 39.8233 55.8248 36.1008 56.0881 32.1529C56.352 28.5435 55.4119 25.3471 53.4944 23.3919ZM45.636 37.5295C45.636 39.9359 43.7935 41.8534 41.5377 41.8534C40.7479 41.8534 39.996 41.6278 39.3193 41.1767C39.8832 38.3192 40.9738 35.4992 42.2896 33.2807C44.2071 33.6566 45.636 35.4237 45.636 37.5295Z" fill="#007AFF"/>
<path d="M31.7616 24.5952C31.7616 24.708 31.7241 24.8208 31.6488 24.896C29.1672 27.4527 27.776 30.8368 27.776 34.3712C27.776 37.9056 29.1672 41.2896 31.6488 43.8464C31.8369 44.0345 31.8369 44.2975 31.6488 44.4856C31.4608 44.6736 31.1977 44.6736 31.0097 44.4856C28.3399 41.7409 26.8735 38.1689 26.8735 34.3712C26.8735 30.5737 28.3399 27.0016 31.0097 24.2568C31.1977 24.0687 31.4608 24.0687 31.6488 24.2568C31.6863 24.3696 31.7616 24.4824 31.7616 24.5951V24.5952Z" fill="#007AFF"/>
<path d="M33.3408 26.212C33.3408 26.3248 33.3033 26.4375 33.228 26.5128C31.16 28.6561 30.0319 31.4383 30.0319 34.4088C30.0319 37.3791 31.16 40.1616 33.228 42.3048C33.4161 42.4929 33.4161 42.7559 33.228 42.944C33.04 43.132 32.7769 43.132 32.5889 42.944C30.3705 40.6504 29.1297 37.6423 29.1297 34.4464C29.1297 31.2502 30.3705 28.2425 32.5889 25.9488C32.7769 25.7607 33.04 25.7607 33.228 25.9488C33.3033 25.986 33.3408 26.0988 33.3408 26.2116V26.212Z" fill="#007AFF"/>
<path d="M34.9576 27.8288C34.9576 27.9416 34.9201 28.0544 34.8448 28.1296C33.1904 29.8216 32.2882 32.0399 32.2882 34.4088C32.2882 36.7778 33.1906 38.996 34.8448 40.688C35.0329 40.8761 35.0329 41.1392 34.8448 41.3272C34.6568 41.5153 34.3937 41.5153 34.2057 41.3272C32.4009 39.4472 31.4232 37.0033 31.4232 34.4088C31.4232 31.8143 32.4007 29.3705 34.2057 27.4904C34.3937 27.3024 34.6568 27.3024 34.8448 27.4904C34.9201 27.5654 34.9576 27.6782 34.9576 27.8287V27.8288Z" fill="#007AFF"/>
<path d="M36.5368 29.408C36.5368 29.5208 36.4993 29.6336 36.424 29.7088C35.2207 30.9872 34.544 32.6416 34.544 34.4088C34.544 36.176 35.2207 37.8305 36.424 39.1088C36.6121 39.2969 36.5743 39.56 36.424 39.748C36.236 39.9361 35.9729 39.8983 35.7849 39.748C34.4313 38.3191 33.6415 36.4391 33.6415 34.4463C33.6415 32.4535 34.3935 30.5735 35.7849 29.1447C35.9729 28.9566 36.236 28.9566 36.424 29.1447C36.4993 29.1824 36.5368 29.2952 36.5368 29.408V29.408Z" fill="#007AFF"/>
</svg>
