<svg width="82" height="82" viewBox="0 0 82 82" fill="none" xmlns="http://www.w3.org/2000/svg">
<rect width="82" height="82" rx="8" fill="#DAEDF5"/>
<g clip-path="url(#clip0_5_822)">
<path d="M54.5668 49.6335H27.9332C27.4747 49.6335 27.0511 49.8782 26.822 50.2752C26.5928 50.6721 26.5928 51.1614 26.822 51.5583C27.0511 51.9553 27.4748 52.2 27.9332 52.2H54.5668C55.0253 52.2 55.4489 51.9553 55.678 51.5583C55.9072 51.1614 55.9072 50.6721 55.678 50.2752C55.4489 49.8782 55.0252 49.6335 54.5668 49.6335Z" fill="#007AFF"/>
<path d="M32.5281 35.8318C32.7485 35.8322 32.9599 35.7446 33.1155 35.5882L35.7241 32.9802H44.6718C45.0875 32.9796 45.4861 32.8142 45.78 32.5201C46.0741 32.2262 46.2395 31.8276 46.2401 31.4119V24.5681C46.2395 24.1524 46.0741 23.7538 45.78 23.4599C45.4861 23.1658 45.0875 23.0004 44.6718 22.9998H33.2655C32.8498 23.0004 32.4512 23.1658 32.1573 23.4599C31.8632 23.7538 31.6978 24.1524 31.6972 24.5681V35.0009C31.6974 35.2212 31.7851 35.4325 31.941 35.5881C32.0966 35.7439 32.3078 35.8317 32.5282 35.8319L32.5281 35.8318ZM36.6873 25.2812H43.531C43.7673 25.2812 43.9588 25.4727 43.9588 25.709C43.9588 25.9452 43.7673 26.1367 43.531 26.1367H36.6873C36.451 26.1367 36.2596 25.9452 36.2596 25.709C36.2596 25.4727 36.451 25.2812 36.6873 25.2812ZM34.406 25.2812H34.9764C35.2127 25.2812 35.4041 25.4727 35.4041 25.709C35.4041 25.9452 35.2127 26.1367 34.9764 26.1367H34.406C34.1698 26.1367 33.9783 25.9452 33.9783 25.709C33.9783 25.4727 34.1698 25.2812 34.406 25.2812ZM34.406 27.5625H43.531C43.7673 27.5625 43.9588 27.7539 43.9588 27.9902C43.9588 28.2265 43.7673 28.4179 43.531 28.4179H34.406C34.1698 28.4179 33.9783 28.2265 33.9783 27.9902C33.9783 27.7539 34.1698 27.5625 34.406 27.5625ZM34.406 29.8437H43.531C43.7673 29.8437 43.9588 30.0352 43.9588 30.2715C43.9588 30.5077 43.7673 30.6992 43.531 30.6992H34.406C34.1698 30.6992 33.9783 30.5077 33.9783 30.2715C33.9783 30.0352 34.1698 29.8437 34.406 29.8437Z" fill="#007AFF"/>
<path d="M36.0602 43.2173C36.0602 44.7134 34.8473 45.9263 33.3512 45.9263C31.8552 45.9263 30.6423 44.7134 30.6423 43.2173C30.6423 41.7213 31.8552 40.5084 33.3512 40.5084C34.8473 40.5084 36.0602 41.7213 36.0602 43.2173Z" fill="#007AFF"/>
<path d="M37.771 48.3482C37.7712 47.1228 37.2614 45.9527 36.364 45.1184C35.7122 46.1537 34.5745 46.7819 33.3511 46.7819C32.1278 46.7819 30.9901 46.1537 30.3383 45.1184C29.4408 45.9527 28.931 47.1228 28.9313 48.3482V48.7782H37.771V48.3482Z" fill="#007AFF"/>
<path d="M51.8579 43.2173C51.8579 44.7134 50.645 45.9263 49.149 45.9263C47.6529 45.9263 46.44 44.7134 46.44 43.2173C46.44 41.7213 47.6529 40.5084 49.149 40.5084C50.645 40.5084 51.8579 41.7213 51.8579 43.2173Z" fill="#007AFF"/>
<path d="M49.1486 46.7818C47.9253 46.781 46.7879 46.153 46.1357 45.1182C45.2383 45.9524 44.7285 47.1226 44.7287 48.3479V48.7779H53.5685V48.3479C53.5687 47.1226 53.0589 45.9524 52.1615 45.1182C51.5093 46.1531 50.3719 46.7811 49.1486 46.7818Z" fill="#007AFF"/>
<path d="M36.2599 33.8358V34.8339C36.2605 35.2496 36.4259 35.6482 36.7201 35.9421C37.014 36.2363 37.4126 36.4017 37.8283 36.4023H46.776L49.3846 39.0102C49.5404 39.1661 49.7518 39.2536 49.9722 39.2536C50.1924 39.2536 50.4038 39.1661 50.5597 39.0102C50.7155 38.8544 50.8031 38.6432 50.8031 38.4228V27.9901C50.8024 27.5743 50.6371 27.1757 50.3429 26.8818C50.049 26.5877 49.6504 26.4223 49.2347 26.4217H47.096V31.4119C47.0952 32.0545 46.8396 32.6707 46.3851 33.1249C45.9309 33.5793 45.3148 33.8349 44.6721 33.8358L36.2599 33.8358Z" fill="#007AFF"/>
</g>
<defs>
<clipPath id="clip0_5_822">
<rect width="36.5" height="36.5" fill="white" transform="translate(23 23)"/>
</clipPath>
</defs>
</svg>
