<svg width="80" height="30" viewBox="0 0 80 30" fill="none" xmlns="http://www.w3.org/2000/svg">
<path d="M6 12.86V17.15" stroke="#007AFF" stroke-width="1.5" stroke-linecap="round" stroke-linejoin="round"/>
<path d="M9 11.43V18.57" stroke="#007AFF" stroke-width="1.5" stroke-linecap="round" stroke-linejoin="round"/>
<path d="M12 10V20" stroke="#007AFF" stroke-width="1.5" stroke-linecap="round" stroke-linejoin="round"/>
<path d="M15 11.43V18.57" stroke="#007AFF" stroke-width="1.5" stroke-linecap="round" stroke-linejoin="round"/>
<path d="M18 12.86V17.15" stroke="#007AFF" stroke-width="1.5" stroke-linecap="round" stroke-linejoin="round"/>
<path d="M12 25C17.5228 25 22 20.5228 22 15C22 9.47715 17.5228 5 12 5C6.47715 5 2 9.47715 2 15C2 20.5228 6.47715 25 12 25Z" stroke="#007AFF" stroke-width="1.5" stroke-linecap="round" stroke-linejoin="round"/>
<path d="M36.14 17.456C39.352 17.456 41.464 15.278 41.464 12.176C41.464 9.03 39.374 6.918 36.14 6.918H29.782V23H32.598V17.456H36.14ZM35.59 9.426C37.46 9.426 38.516 10.394 38.516 12.154C38.516 13.914 37.482 14.948 35.546 14.948H32.598V9.426H35.59ZM45.7028 23V6.632H43.0408V23H45.7028ZM55.4483 12.132V17.83C55.4483 19.898 54.6343 20.888 52.9403 20.888C51.4443 20.888 50.6303 20.052 50.6303 17.984V12.132H47.9463V18.93C47.9463 21.592 49.4203 23.286 51.9283 23.286C53.3803 23.286 54.7883 22.582 55.4483 21.548L55.6463 23H58.1323V12.132H55.4483ZM64.1604 23V14.376H66.2724V12.132H64.1604V8.744H61.4764V12.132H59.3864V14.376H61.4764V23H64.1604ZM66.7556 17.544C66.7556 20.932 69.1976 23.264 72.5636 23.264C75.9296 23.264 78.3716 20.932 78.3716 17.544C78.3716 14.156 75.9296 11.824 72.5636 11.824C69.1976 11.824 66.7556 14.156 66.7556 17.544ZM69.4396 17.544C69.4396 15.564 70.7156 14.222 72.5636 14.222C74.4116 14.222 75.6876 15.564 75.6876 17.544C75.6876 19.524 74.4116 20.866 72.5636 20.866C70.7156 20.866 69.4396 19.524 69.4396 17.544Z" fill="#2F80ED"/>
</svg>
